<svg aria-hidden="true" style="position: absolute; width: 0; height: 0; overflow: hidden;" version="1.1" xmlns="http://www.w3.org/2000/svg" xmlns:xlink="http://www.w3.org/1999/xlink">
<defs>
<symbol id="icon-phone" viewBox="0 0 32 32">
<path fill="#fff" style="fill: var(--color1, #fff)" d="M21.424 20.102c-0.288-0.261-0.666-0.401-1.055-0.389s-0.757 0.175-1.029 0.453l-2.251 1.603c-0.863-0.165-2.597-0.705-4.382-2.485-1.785-1.786-2.326-3.524-2.486-4.38l1.616-2.238c0.279-0.271 0.442-0.639 0.454-1.028s-0.128-0.767-0.39-1.054l-3.467-7.427c-0.262-0.288-0.626-0.463-1.015-0.488s-0.772 0.104-1.068 0.357l-3.25 2.786c-0.259 0.26-0.413 0.605-0.434 0.971-0.022 0.374 0.689 8.109 7.566 14.985 6 5.995 12.375 7.564 14.445 7.564 0.303 0 0.488-0.009 0.538-0.012 0.366-0.021 0.712-0.176 0.971-0.436l2.786-3.25c0.254-0.296 0.382-0.679 0.358-1.067s-0.199-0.753-0.487-1.015l-7.419-3.451z"></path>
</symbol>
</defs>
</svg>
