<svg aria-hidden="true" style="position: absolute; width: 0; height: 0; overflow: hidden;" version="1.1" xmlns="http://www.w3.org/2000/svg" xmlns:xlink="http://www.w3.org/1999/xlink">
<defs>
<symbol id="icon-logo" viewBox="0 0 39 32">
<path d="M8.686 0.64c0 0.366 0.457 0.594 1.143 0.594 1.051 0 1.097-0.046 0.366-0.594-1.051-0.777-1.509-0.777-1.509 0z"></path>
<path d="M11.886 1.143c-0.823 0.96-0.229 2.149 1.006 1.966 1.189-0.137 1.691-1.646 0.731-2.24-0.823-0.549-1.097-0.503-1.737 0.274z"></path>
<path d="M6.309 2.423c-1.097 0.869-1.28 2.377-0.32 2.971 1.097 0.686 2.286 0.686 3.2-0.046 0.731-0.549 0.731-0.686 0-1.92-0.823-1.554-1.829-1.874-2.88-1.006z"></path>
<path d="M16.731 3.52c-0.503 0.503-0.274 1.051 0.411 1.051 0.366 0 0.686-0.183 0.686-0.411 0-0.594-0.731-1.006-1.097-0.64z"></path>
<path d="M10.926 4.8c-0.046 0.137-0.091 0.366-0.137 0.549-0.046 0.229-0.229 0.64-0.457 0.96-0.32 0.503-0.183 0.503 0.594 0 1.006-0.594 1.326-1.737 0.503-1.737-0.229 0-0.503 0.091-0.503 0.229z"></path>
<path d="M2.149 5.806c-0.183 0.137-0.32 0.503-0.32 0.777s0.229 0.229 0.549-0.091c0.274-0.274 0.411-0.64 0.32-0.777-0.137-0.137-0.411-0.091-0.549 0.091z"></path>
<path d="M18.286 6.354c0 0.503 0.274 0.96 0.594 1.097 0.914 0.32 1.691-0.183 1.691-1.097 0-0.64-0.32-0.869-1.143-0.869s-1.143 0.229-1.143 0.869z"></path>
<path d="M13.531 6.674c-0.914 0.869-0.914 1.097-0.046 2.331 0.594 0.823 0.914 0.96 1.829 0.594 1.28-0.503 1.92 0.091 2.149 2.057 0.091 1.097 0.366 1.417 1.371 1.509 1.371 0.183 2.377-1.143 1.92-2.423-0.229-0.503 0-0.823 0.686-1.006 0.503-0.137 0.96-0.549 0.96-0.869 0-0.914-0.823-0.777-1.326 0.183-0.32 0.594-0.914 0.823-1.966 0.823-2.057-0.091-2.651-0.549-2.651-2.103 0-1.783-1.646-2.423-2.926-1.097z"></path>
<path d="M7.771 7.726c-0.32 0.686-0.274 1.051 0.274 1.6 0.914 0.96 1.417 0.914 2.011-0.137 0.32-0.686 0.274-1.051-0.274-1.6-0.914-0.96-1.417-0.914-2.011 0.137z"></path>
<path d="M0.137 8.32c0.091 0.32 0.457 0.594 0.777 0.594s0.686-0.274 0.823-0.594c0.091-0.32-0.229-0.549-0.823-0.549s-0.914 0.229-0.777 0.549z"></path>
<path d="M2.743 8.457c-0.274 0.366-0.411 0.869-0.229 1.143s-0.046 0.914-0.503 1.417c-0.411 0.457-0.549 0.869-0.32 0.869 0.274 0 0.594-0.274 0.731-0.64 0.411-1.006 2.469-1.143 3.337-0.229 0.457 0.503 0.914 0.777 1.051 0.64 0.091-0.137-0.229-0.549-0.777-0.96-0.549-0.366-0.914-0.914-0.731-1.143 0.32-0.549-0.64-1.783-1.417-1.783-0.32 0-0.823 0.32-1.143 0.686z"></path>
<path d="M9.463 11.291c-0.137 0.137-0.137 0.503-0.046 0.823 0.137 0.32-0.091 1.097-0.503 1.737-0.64 1.051-0.64 1.143 0 1.417 1.463 0.549 1.691 0.32 1.417-1.326-0.274-1.463-0.229-1.6 0.777-1.6 0.64 0 1.234 0.32 1.417 0.686 0.137 0.457 0.731 0.686 1.554 0.594 1.006-0.091 1.28-0.274 1.097-0.914-0.366-1.463-1.371-1.966-2.651-1.234-0.869 0.457-1.371 0.457-2.011 0.091-0.457-0.32-0.914-0.411-1.051-0.274z"></path>
<path d="M3.383 13.12c0.32 0.686 0.777 1.006 1.28 0.869 1.006-0.229 2.286 1.189 1.92 2.194-0.137 0.411-0.457 0.731-0.686 0.731s-0.411 0.32-0.411 0.731c0 0.96 1.051 0.549 1.189-0.457 0.046-0.457 0.32-1.051 0.594-1.326 0.32-0.32 0.091-0.731-0.686-1.326-0.594-0.503-1.097-1.189-1.097-1.554s-0.137-0.64-0.32-0.686c-0.229 0-0.777-0.091-1.326-0.137-0.823-0.091-0.869 0-0.457 0.96z"></path>
<path d="M16 14.171c0 0.229 0.229 0.457 0.457 0.457 0.274 0 0.457-0.229 0.457-0.457 0-0.274-0.183-0.457-0.457-0.457-0.229 0-0.457 0.183-0.457 0.457z"></path>
<path d="M7.771 17.829c-0.32 0.731-0.777 1.234-1.006 1.097-0.274-0.183-0.229 0.137 0.046 0.64 0.64 1.189 0.64 2.606 0 5.577-0.366 1.737-0.777 2.469-1.691 2.971-1.097 0.594 0.32 0.64 12.709 0.594 14.309-0.091 14.309-0.137 0.32-0.777-4.48-0.183-8.274-0.549-8.503-0.777s-0.549-1.691-0.731-3.246c-0.32-2.88-0.32-2.88 1.097-3.657 0.823-0.503 1.417-1.189 1.417-1.737 0-0.823-0.137-0.777-1.143 0.366-1.6 1.691-2.011 1.554-1.737-0.594 0.32-2.194 0-2.331-0.777-0.457z"></path>
<path d="M10.971 20.297c0 0.549 2.469 6.217 2.697 6.217 0.411 0 2.88-5.989 2.606-6.309-0.137-0.137-0.686 0.823-1.234 2.103-0.549 1.326-1.143 2.377-1.371 2.377-0.183 0-0.686-0.914-1.143-2.057-0.686-1.783-1.554-3.109-1.554-2.331z"></path>
<path d="M19.657 20.343c0 0.091 0.32 0.914 0.777 1.783 0.686 1.463 0.686 1.691 0 2.743-0.457 0.64-0.777 1.417-0.777 1.737s0.457-0.091 1.006-0.914l0.96-1.554 0.914 1.463c1.189 1.92 1.6 1.371 0.411-0.64-0.914-1.554-0.914-1.554 0-3.017 0.457-0.823 0.777-1.6 0.64-1.691-0.137-0.137-0.64 0.411-1.143 1.234l-0.869 1.463-0.731-1.417c-0.686-1.28-1.189-1.783-1.189-1.189z"></path>
<path d="M26.606 20.434c-0.96 0.366-1.966 2.789-1.646 4.023 0.64 2.469 3.84 3.337 5.577 1.463 2.56-2.743-0.411-6.903-3.931-5.486zM30.446 22.171c0.869 1.326 0.503 2.743-0.914 3.703-2.286 1.463-4.754-1.097-3.52-3.749 0.686-1.554 3.383-1.554 4.434 0.046z"></path>
<path d="M37.486 22.72v2.651l-2.286-2.514-2.24-2.514 0.046 3.429c0.046 2.789 0.091 2.971 0.229 1.006 0.091-1.28 0.32-2.377 0.457-2.377 0.183 0 1.189 0.96 2.286 2.149l1.92 2.194 0.046-3.337c0-1.783-0.091-3.291-0.229-3.291s-0.229 1.189-0.229 2.606z"></path>
<path d="M17.371 23.497c0 1.646 0.229 3.109 0.457 3.246 0.274 0.183 0.457-0.914 0.457-2.926 0-1.874-0.183-3.246-0.457-3.246s-0.457 1.28-0.457 2.926z"></path>
</symbol>
</defs>
</svg>
