<svg aria-hidden="true" style="position: absolute; width: 0; height: 0; overflow: hidden;" version="1.1" xmlns="http://www.w3.org/2000/svg" xmlns:xlink="http://www.w3.org/1999/xlink">
<defs>
<symbol id="icon-group-icon" viewBox="0 0 43 32">
<path fill="none" stroke="#6bbc60" style="stroke: var(--color1, #6bbc60)" stroke-linejoin="miter" stroke-linecap="butt" stroke-miterlimit="4" stroke-width="2" d="M14.195 19.868l0 0 0.007-0.003c1.973-0.877 4.395-1.532 7.132-1.532 2.735 0 5.158 0.654 7.135 1.515 1.547 0.689 2.532 2.244 2.532 3.938v1.102c0 0.425-0.352 0.778-0.778 0.778h-17.778c-0.425 0-0.778-0.352-0.778-0.778v-1.085c0-1.717 0.988-3.266 2.528-3.936zM2.562 21.506v0l0.006-0.003c1.39-0.605 2.926-0.948 4.543-0.948 0.167 0 0.332 0.005 0.496 0.013-0.391 1.008-0.607 2.098-0.607 3.236v1.862h-5.222c-0.425 0-0.778-0.352-0.778-0.778v-1.014c-0-0.504 0.147-0.998 0.425-1.419s0.673-0.751 1.137-0.95zM40.098 21.503l0.003 0.001c0.954 0.413 1.566 1.335 1.566 2.371v1.013c0 0.425-0.352 0.778-0.778 0.778h-5.222v-1.862c0-1.138-0.216-2.227-0.607-3.236 0.164-0.009 0.329-0.013 0.496-0.013v0c1.563-0 3.11 0.322 4.542 0.948zM9.667 14.222c0 1.403-1.152 2.555-2.556 2.555s-2.556-1.152-2.556-2.555c0-1.403 1.152-2.556 2.556-2.556s2.556 1.152 2.556 2.556zM38.111 14.222c0 1.403-1.152 2.555-2.555 2.555s-2.556-1.152-2.556-2.555c0-1.403 1.152-2.556 2.556-2.556s2.555 1.152 2.555 2.556zM21.333 6.333c2.399 0 4.333 1.935 4.333 4.333s-1.935 4.333-4.333 4.333c-2.399 0-4.333-1.934-4.333-4.333s1.935-4.333 4.333-4.333z"></path>
</symbol>
<symbol id="icon-message-vector" viewBox="0 0 35 32">
<path fill="#fff" style="fill: var(--color2, #fff)" d="M8.307 26.256c-0.325 0-0.641 0.104-0.903 0.296l-4.977 3.662c-1.006 0.74-2.427 0.022-2.427-1.227v-27.346c0-0.435 0.185-0.853 0.513-1.16s0.774-0.481 1.239-0.481h31.543c0.465 0 0.91 0.173 1.239 0.481s0.513 0.725 0.513 1.16v22.974c0 0.435-0.185 0.853-0.513 1.16s-0.774 0.481-1.239 0.481h-24.988zM10.286 11.487c-0.842 0-1.524 0.682-1.524 1.524v0.234c0 0.842 0.682 1.524 1.524 1.524h0.457c0.842 0 1.524-0.682 1.524-1.524v-0.234c0-0.842-0.682-1.524-1.524-1.524h-0.457zM17.295 11.487c-0.842 0-1.524 0.682-1.524 1.524v0.234c0 0.842 0.682 1.524 1.524 1.524h0.457c0.842 0 1.524-0.682 1.524-1.524v-0.234c0-0.842-0.682-1.524-1.524-1.524h-0.457zM24.305 11.487c-0.842 0-1.524 0.682-1.524 1.524v0.234c0 0.842 0.682 1.524 1.524 1.524h0.457c0.842 0 1.524-0.682 1.524-1.524v-0.234c0-0.842-0.682-1.524-1.524-1.524h-0.457z"></path>
</symbol>
<symbol id="icon-open-book" viewBox="0 0 43 32">
<path fill="none" stroke="#6bbc60" style="stroke: var(--color1, #6bbc60)" stroke-linejoin="round" stroke-linecap="round" stroke-miterlimit="4" stroke-width="2.1333" d="M21.333 7.191v20.542M21.333 7.191c0 0-6.933-5.869-13.867-0.978v21.52c6.933-4.891 13.867 0 13.867 0s6.933-4.891 13.867 0v-21.52c-6.933-4.891-13.867 0.978-13.867 0.978z"></path>
</symbol>
<symbol id="icon-pencil-icon" viewBox="0 0 43 32">
<path fill="#6bbc60" style="fill: var(--color1, #6bbc60)" d="M26.321 3.657l-9.747 9.747c-4.078 4.089-7.167 9.057-9.029 14.523-0.089 0.259-0.103 0.537-0.041 0.803s0.198 0.51 0.392 0.702l0.005 0.005c0.135 0.136 0.296 0.244 0.473 0.318s0.367 0.112 0.559 0.112c0.161-0 0.322-0.027 0.474-0.079 5.467-1.862 10.434-4.951 14.523-9.029l9.746-9.747c0.975-0.975 1.523-2.298 1.523-3.678s-0.548-2.702-1.523-3.678c-0.483-0.483-1.056-0.866-1.687-1.127s-1.307-0.396-1.99-0.396c-1.379 0-2.702 0.548-3.678 1.523zM22.605 19.434c-3.684 3.674-8.121 6.506-13.005 8.299 1.793-4.884 4.625-9.321 8.299-13.005l5.806-5.806 4.706 4.706-5.806 5.806zM32.352 9.688l-2.616 2.616-4.706-4.706 2.616-2.616c0.309-0.31 0.676-0.556 1.080-0.723s0.837-0.254 1.274-0.255c0.437-0 0.87 0.086 1.275 0.253s0.771 0.412 1.081 0.722c0.309 0.309 0.555 0.676 0.722 1.081s0.253 0.837 0.253 1.275c-0 0.437-0.087 0.87-0.255 1.274s-0.414 0.771-0.723 1.080z"></path>
</symbol>
<symbol id="icon-person-icon" viewBox="0 0 43 32">
<path fill="none" stroke="#6bbc60" style="stroke: var(--color1, #6bbc60)" stroke-linejoin="miter" stroke-linecap="butt" stroke-miterlimit="4" stroke-width="2.1333" d="M21.689 21.4c3.398 0 6.408 0.824 8.862 1.907 1.968 0.888 3.227 2.896 3.227 5.093v1.378c0 0.647-0.523 1.156-1.126 1.156h-21.926c-0.603 0-1.126-0.509-1.126-1.156v-1.356c0-2.224 1.263-4.226 3.223-5.091v0l0.008-0.003c2.45-1.104 5.458-1.928 8.858-1.928zM21.689 6.4c3.037 0 5.511 2.487 5.511 5.6s-2.474 5.6-5.511 5.6c-3.037 0-5.511-2.487-5.511-5.6s2.474-5.6 5.511-5.6z"></path>
</symbol>
<symbol id="telephone-icon" viewBox="0 0 30 32">
<path d="M21.175 20.633c-0.325-0.295-0.752-0.453-1.191-0.439s-0.855 0.197-1.161 0.512l-2.541 1.81c-0.974-0.186-2.932-0.796-4.947-2.806-2.015-2.017-2.626-3.98-2.807-4.947l1.824-2.528c0.315-0.306 0.499-0.722 0.513-1.161s-0.144-0.866-0.44-1.191l-3.914-8.388c-0.296-0.326-0.707-0.523-1.146-0.551s-0.872 0.117-1.206 0.404l-3.669 3.146c-0.292 0.293-0.467 0.684-0.49 1.097-0.025 0.423 0.778 9.158 8.541 16.925 6.773 6.771 13.971 8.543 16.307 8.543 0.342 0 0.551-0.010 0.607-0.014 0.413-0.023 0.804-0.198 1.096-0.492l3.145-3.67c0.287-0.334 0.432-0.766 0.404-1.205s-0.224-0.85-0.55-1.146l-8.376-3.898z"></path>
</symbol>
<symbol id="icon-Arrow-right" viewBox="0 0 82 32">
<path fill="#6bbc60" style="fill: var(--color1, #6bbc60)" d="M77.849 15.808l-22.857-13.197v26.393l22.857-13.197zM0 18.094h57.277v-4.571h-57.277v4.571z"></path>
</symbol>
<symbol id="icon-book-icon" viewBox="0 0 43 32">
<path fill="#6bbc60" style="fill: var(--color1, #6bbc60)" d="M31.111 6.467h-17.008c-0.227-0.003-0.45-0.053-0.658-0.146s-0.394-0.228-0.548-0.396-0.274-0.366-0.351-0.583c-0.077-0.216-0.11-0.446-0.096-0.675-0.001-0.456 0.169-0.896 0.476-1.23s0.728-0.538 1.177-0.57h17.008c0.236 0 0.462-0.095 0.628-0.264s0.26-0.398 0.26-0.636c0-0.239-0.094-0.468-0.26-0.636s-0.393-0.264-0.628-0.264h-17.008c-0.921 0.033-1.793 0.426-2.433 1.098s-0.997 1.569-0.997 2.502c-0.009 0.147-0.009 0.294 0 0.441-0.008 0.072-0.008 0.144 0 0.216v20.943c-0.001 0.933 0.357 1.83 0.997 2.502s1.512 1.065 2.433 1.098h17.008c0.236 0 0.462-0.095 0.628-0.264s0.26-0.398 0.26-0.636v-21.537c0.001-0.245-0.091-0.481-0.256-0.66s-0.391-0.287-0.633-0.303zM30.223 28.067h-16.12c-0.449-0.032-0.87-0.236-1.177-0.57s-0.477-0.774-0.476-1.23v-18.405c0.505 0.282 1.076 0.422 1.653 0.405h16.12v19.8z"></path>
</symbol>
<symbol id="icon-calendar-icon" viewBox="0 0 43 32">
<path fill="#6bbc60" style="fill: var(--color1, #6bbc60)" d="M19.6 15.426c-0.306 0-0.6 0.121-0.817 0.337s-0.338 0.508-0.338 0.812c0 0.305 0.122 0.597 0.338 0.812s0.511 0.336 0.817 0.336v-2.297zM21.911 16.574h1.156c0-0.305-0.122-0.597-0.338-0.812s-0.511-0.337-0.817-0.337v1.149zM20.756 24.041c0 0.305 0.122 0.597 0.338 0.812s0.511 0.336 0.817 0.336c0.306 0 0.6-0.121 0.817-0.336s0.338-0.508 0.338-0.812h-2.311zM8.622 10.256c-0.306 0-0.6 0.121-0.817 0.336s-0.338 0.508-0.338 0.812 0.122 0.597 0.338 0.812c0.217 0.215 0.511 0.336 0.817 0.336v-2.297zM34.044 12.554c0.306 0 0.6-0.121 0.817-0.336s0.338-0.508 0.338-0.812c0-0.305-0.122-0.597-0.338-0.812s-0.511-0.336-0.817-0.336v2.297zM25.956 6.81c0 0.305 0.122 0.597 0.338 0.812s0.511 0.336 0.817 0.336c0.306 0 0.6-0.121 0.817-0.336s0.338-0.508 0.338-0.812h-2.311zM28.267 2.215c0-0.305-0.122-0.597-0.338-0.812s-0.511-0.336-0.817-0.336c-0.307 0-0.6 0.121-0.817 0.336s-0.338 0.508-0.338 0.812h2.311zM14.4 6.81c0 0.305 0.122 0.597 0.338 0.812s0.511 0.336 0.817 0.336c0.307 0 0.6-0.121 0.817-0.336s0.338-0.508 0.338-0.812h-2.311zM16.711 2.215c0-0.305-0.122-0.597-0.338-0.812s-0.511-0.336-0.817-0.336c-0.306 0-0.6 0.121-0.817 0.336s-0.338 0.508-0.338 0.812h2.311zM19.6 17.723h2.311v-2.297h-2.311v2.297zM20.756 16.574v7.467h2.311v-7.467h-2.311zM10.933 5.662h20.8v-2.297h-20.8v2.297zM32.889 6.81v20.677h2.311v-20.677h-2.311zM31.733 28.636h-20.8v2.297h20.8v-2.297zM9.778 27.487v-20.677h-2.311v20.677h2.311zM10.933 28.636c-0.306 0-0.6-0.121-0.817-0.337s-0.338-0.508-0.338-0.812h-2.311c0 0.914 0.365 1.791 1.015 2.437s1.532 1.009 2.451 1.009v-2.297zM32.889 27.487c0 0.305-0.122 0.597-0.338 0.812s-0.511 0.337-0.817 0.337v2.297c0.919 0 1.801-0.363 2.451-1.009s1.015-1.523 1.015-2.437h-2.311zM31.733 5.662c0.306 0 0.6 0.121 0.817 0.336s0.338 0.508 0.338 0.812h2.311c0-0.914-0.365-1.791-1.015-2.437s-1.532-1.009-2.451-1.009v2.297zM10.933 3.364c-0.919 0-1.801 0.363-2.451 1.009s-1.015 1.523-1.015 2.437h2.311c0-0.305 0.122-0.597 0.338-0.812s0.511-0.336 0.817-0.336v-2.297zM8.622 12.554h25.422v-2.297h-25.422v2.297zM28.267 6.81v-4.595h-2.311v4.595h2.311zM16.711 6.81v-4.595h-2.311v4.595h2.311z"></path>
</symbol>
<symbol id="icon-cash-icon" viewBox="0 0 43 32">
<path fill="#6bbc60" style="fill: var(--color1, #6bbc60)" d="M19.744 22.989v-1.584c-0.634-0.048-1.234-0.163-1.8-0.346-0.557-0.192-1.042-0.456-1.454-0.792l0.562-1.454c0.451 0.336 0.946 0.595 1.483 0.778s1.128 0.274 1.771 0.274c0.701 0 1.214-0.125 1.541-0.374s0.49-0.562 0.49-0.936c0-0.336-0.11-0.605-0.331-0.806s-0.614-0.365-1.181-0.49l-1.526-0.331c-0.864-0.192-1.517-0.509-1.958-0.95-0.432-0.451-0.648-1.046-0.648-1.786 0-0.806 0.274-1.483 0.821-2.030 0.557-0.557 1.301-0.893 2.232-1.008v-1.627h1.44v1.613c0.499 0.048 0.984 0.168 1.454 0.36s0.869 0.451 1.195 0.778l-0.547 1.382c-0.73-0.672-1.661-1.008-2.794-1.008-0.595 0-1.075 0.139-1.44 0.418-0.355 0.269-0.533 0.624-0.533 1.066 0 0.326 0.11 0.59 0.331 0.792s0.576 0.355 1.066 0.461l1.526 0.331c0.922 0.202 1.603 0.523 2.045 0.965 0.451 0.432 0.677 1.008 0.677 1.728 0 0.806-0.278 1.469-0.835 1.987-0.547 0.509-1.262 0.83-2.146 0.965v1.627h-1.44z"></path>
<path fill="none" stroke="#6bbc60" style="stroke: var(--color1, #6bbc60)" stroke-linejoin="miter" stroke-linecap="butt" stroke-miterlimit="4" stroke-width="2.1333" d="M34.133 15.467c0 7.364-5.97 13.333-13.333 13.333s-13.333-5.97-13.333-13.333c0-7.364 5.97-13.333 13.333-13.333s13.333 5.97 13.333 13.333z"></path>
</symbol>
<symbol id="icon-green-clock" viewBox="0 0 43 32">
<path fill="none" stroke="#6bbc60" style="stroke: var(--color1, #6bbc60)" stroke-linejoin="round" stroke-linecap="round" stroke-miterlimit="4" stroke-width="2.1333" d="M21.333 29.867c7.658 0 13.867-6.208 13.867-13.867s-6.208-13.867-13.867-13.867c-7.658 0-13.867 6.208-13.867 13.867s6.208 13.867 13.867 13.867z"></path>
<path fill="none" stroke="#6bbc60" style="stroke: var(--color1, #6bbc60)" stroke-linejoin="round" stroke-linecap="round" stroke-miterlimit="4" stroke-width="2.1333" d="M21.333 7.467v8l4.267 2.667"></path>
</symbol>
<symbol id="icon-green-flag" viewBox="0 0 43 32">
<path fill="#6bbc60" style="fill: var(--color1, #6bbc60)" d="M17.126 0c-0.32 0-0.628 0.115-0.854 0.319s-0.354 0.481-0.354 0.77v24.898c0 0.289 0.127 0.566 0.354 0.77s0.534 0.319 0.854 0.319 0.628-0.115 0.854-0.319c0.226-0.204 0.354-0.481 0.354-0.77v-10.293c0-0.589 0.478-1.067 1.067-1.067h13.772c0.32 0 0.628-0.115 0.854-0.319s0.354-0.481 0.354-0.77v-12.449c0-0.289-0.127-0.566-0.354-0.77s-0.534-0.319-0.854-0.319h-15.873c-0.029 0-0.058 0.001-0.088 0.003-0.028-0.002-0.057-0.003-0.085-0.003zM18.506 3.245c0-0.589 0.478-1.067 1.067-1.067h11.325c0.589 0 1.067 0.478 1.067 1.067v8.137c0 0.589-0.478 1.067-1.067 1.067h-11.325c-0.589 0-1.067-0.478-1.067-1.067v-8.137z"></path>
<path fill="#6bbc60" style="fill: var(--color1, #6bbc60)" d="M14.442 24.615c-3.477 0.477-5.909 1.616-5.909 3.294 0 2.259 4.063 4.091 9.846 4.091s9.846-1.832 9.846-4.091c0-1.678-2.432-2.817-5.909-3.293l-0.482 0.795c2.621 0.352 4.421 1.093 4.421 1.953 0 1.205-3.527 2.182-7.877 2.182s-7.877-0.977-7.877-2.182c-0-0.857 1.789-1.597 4.417-1.95-0.159-0.266-0.318-0.531-0.478-0.798z"></path>
</symbol>
<symbol id="icon-arrow-up" viewBox="0 0 32 32">
<path d="M16 1l-15 15h9v16h12v-16h9z"></path>
</symbol>
<symbol id="icon-menu" viewBox="0 0 48 32">
<path d="M0 5.333v-5.333h48v5.333h-48zM0 18.667h48v-5.333h-48v5.333zM0 32h48v-5.333h-48v5.333z"></path>
</symbol>
</defs>
</svg>
